<svg width="426" height="689" viewBox="0 0 426 689" fill="none" xmlns="http://www.w3.org/2000/svg">
<path d="M5 99.5L10.5 132L420.5 145L424 2L5 99.5Z" stroke="black" stroke-width="2" stroke-dasharray="50 5 10 5 10 5"/>
<path d="M373.12 196.86L374.066 196.889L374.089 197.835L375.86 273.822H336.589L308.089 297.322V336.322H124.589V523.822H186.589V567.822H205.297C204.278 569.204 203.333 570.731 202.489 572.384C192.694 584.365 186.835 601.824 190.602 616.951L134.543 614.358L133.722 614.32L133.6 613.506L81 261.463C84.665 260.785 88.1405 259.424 91.2432 257.322H136.089L155.089 238.322V190L373.12 196.86ZM382.589 562.335L382.627 563.997L381.142 563.253C378.19 561.778 371.586 560.254 361.57 560.82C351.898 561.366 339.108 563.858 323.492 570.161L321.972 570.783C310.005 575.745 300.867 582.29 294.008 589.11C293.792 588.916 293.572 588.723 293.349 588.535C291.874 580.435 289.083 573.252 285.07 567.822H294.589V526.822H368.089V388.822H378.543L382.589 562.335Z" fill="#8DDD70" fill-opacity="0.5"/>
<path d="M84.5 644L10.5 132L421.5 144.5V591.5C406.333 585.667 368.6 577.5 339 591.5C309.4 605.5 299 638 297.5 652.5L84.5 644Z" stroke="black" stroke-width="2" stroke-dasharray="50 5 10 5 10 5"/>
<path d="M56 110L70 190L373 198.5V38.5L56 110Z" fill="#65E665" fill-opacity="0.22"/>
<path d="M124.5 523.5V336H368V526.5H294.5V567.5H186.5V523.5H124.5Z" stroke="black" stroke-width="4"/>
<path d="M308 297V337.5H367.5V388.5H419V273.5H336.5L308 297Z" stroke="black"/>
<path d="M136 257H80.5V136.252H141L155 160.5V238L136 257Z" stroke="black"/>
<path d="M71 188L373 197.5L381.5 562C375.167 558.834 354.3 555.9 321.5 569.5C288.7 583.1 276.833 608.5 275 619.5L134.5 613L71 188Z" stroke="black" stroke-width="2" stroke-dasharray="25 5"/>
<path d="M77.9694 124.75C97.9694 119.75 117.969 134.75 122.969 154.75C137.969 164.75 137.969 184.75 127.969 204.75C132.969 224.75 117.969 244.75 97.9694 249.75C87.9694 264.75 67.9694 264.75 52.9694 254.75C32.9694 249.75 17.9694 234.75 12.9694 214.75C-2.03062 204.75 -2.03062 184.75 7.96938 164.75C12.9694 144.75 32.9694 129.75 52.9694 124.75C62.9694 119.75 72.9694 119.75 77.9694 124.75Z" stroke="black" stroke-width="2"/>
<path d="M71 194C72.6569 194 74 192.657 74 191C74 189.344 72.6569 188 71 188C69.3431 188 68 189.344 68 191C68 192.657 69.3431 194 71 194Z" fill="black"/>
<path d="M219.816 560.275C230.616 547.116 251.259 547.218 264.417 558.017C279.284 557.265 289.127 570.525 292.341 588.707C305.499 599.507 305.397 620.15 294.598 633.308C295.35 648.175 282.09 658.018 267.223 658.771C251.502 665.299 234.174 662.736 221.016 651.937C206.149 652.689 196.305 639.429 193.092 621.247C186.564 605.526 192.442 585.737 203.241 572.579C207.41 564.342 214.041 559.42 219.816 560.275Z" stroke="black" stroke-width="2"/>
<path d="M248.472 611.54C249.84 611.54 250.949 610.431 250.949 609.063C250.949 607.695 249.84 606.585 248.472 606.585C247.104 606.585 245.995 607.695 245.995 609.063C245.995 610.431 247.104 611.54 248.472 611.54Z" fill="black"/>
<rect x="373" y="226" width="88" height="156" transform="rotate(180 373 226)" fill="#D9D9D9" stroke="black" stroke-width="4"/>
<path d="M371 145L286 145" stroke="black"/>
</svg>
