<svg width="423" height="569" viewBox="0 0 423 569" fill="none" xmlns="http://www.w3.org/2000/svg">
<path d="M373.12 76.8594L374.066 76.8887L374.089 77.835L375.86 153.821H336.589L308.089 177.321V216.321H124.589V403.821H186.589V447.821H205.297C204.278 449.204 203.333 450.731 202.489 452.384C192.694 464.365 186.835 481.823 190.602 496.95L134.543 494.357L133.722 494.319L133.6 493.506L81 141.463C84.665 140.785 88.1405 139.423 91.2432 137.321H136.089L155.089 118.321V70L373.12 76.8594ZM382.589 442.335L382.627 443.996L381.142 443.253C378.19 441.777 371.586 440.254 361.57 440.819C351.898 441.366 339.108 443.858 323.492 450.16L321.972 450.782C310.005 455.744 300.867 462.289 294.008 469.109C293.792 468.915 293.572 468.723 293.349 468.534C291.874 460.434 289.083 453.252 285.07 447.821H294.589V406.821H368.089V268.821H378.543L382.589 442.335Z" fill="#8DDD70" fill-opacity="0.5"/>
<path d="M84.5 524L10.5 12L421.5 24.5V471.5C406.333 465.667 368.6 457.5 339 471.5C309.4 485.5 299 518 297.5 532.5L84.5 524Z" stroke="black" stroke-width="2" stroke-dasharray="50 5 10 5 10 5"/>
<path d="M124.5 403.5V216H368V406.5H294.5V447.5H186.5V403.5H124.5Z" stroke="black" stroke-width="4"/>
<path d="M308 177V217.5H367.5V268.5H419V153.5H336.5L308 177Z" stroke="black"/>
<path d="M136 137H80.5V16.2512H141L155 40.4999V118L136 137Z" stroke="black"/>
<path d="M71 68L373 77.5L381.5 442C375.167 438.833 354.3 435.9 321.5 449.5C288.7 463.1 276.833 488.5 275 499.5L134.5 493L71 68Z" stroke="black" stroke-width="2" stroke-dasharray="25 5"/>
<path d="M77.9694 4.75C97.9694 -0.25 117.969 14.75 122.969 34.75C137.969 44.75 137.969 64.75 127.969 84.75C132.969 104.75 117.969 124.75 97.9694 129.75C87.9694 144.75 67.9694 144.75 52.9694 134.75C32.9694 129.75 17.9694 114.75 12.9694 94.75C-2.03062 84.75 -2.03062 64.75 7.96938 44.75C12.9694 24.75 32.9694 9.75 52.9694 4.75C62.9694 -0.25 72.9694 -0.25 77.9694 4.75Z" stroke="black" stroke-width="2"/>
<path d="M71 74C72.6569 74 74 72.6569 74 71C74 69.3431 72.6569 68 71 68C69.3431 68 68 69.3431 68 71C68 72.6569 69.3431 74 71 74Z" fill="black"/>
<path d="M219.816 440.275C230.616 427.116 251.259 427.218 264.417 438.017C279.284 437.265 289.127 450.525 292.341 468.707C305.499 479.507 305.397 500.15 294.598 513.308C295.35 528.175 282.09 538.018 267.223 538.771C251.502 545.299 234.174 542.736 221.016 531.937C206.149 532.689 196.305 519.429 193.092 501.247C186.564 485.526 192.442 465.737 203.241 452.579C207.41 444.342 214.041 439.42 219.816 440.275Z" stroke="black" stroke-width="2"/>
<path d="M248.472 491.54C249.84 491.54 250.949 490.431 250.949 489.063C250.949 487.695 249.84 486.585 248.472 486.585C247.104 486.585 245.995 487.695 245.995 489.063C245.995 490.431 247.104 491.54 248.472 491.54Z" fill="black"/>
<rect x="210" y="140" width="64" height="163" transform="rotate(-90 210 140)" fill="#D9D9D9" stroke="black" stroke-width="4"/>
<path d="M241 139L241 76" stroke="black"/>
<path d="M342 139L342 76" stroke="black"/>
</svg>
